<?xml version="1.0" encoding="UTF-8" standalone="no"?><!DOCTYPE svg PUBLIC "-//W3C//DTD SVG 1.1//EN" "http://www.w3.org/Graphics/SVG/1.1/DTD/svg11.dtd"><svg width="100%" height="100%" viewBox="0 0 1057 274" version="1.1" xmlns="http://www.w3.org/2000/svg" xmlns:xlink="http://www.w3.org/1999/xlink" xml:space="preserve" xmlns:serif="http://www.serif.com/" style="fill-rule:evenodd;clip-rule:evenodd;stroke-linecap:round;stroke-linejoin:round;stroke-miterlimit:1.5;"><g><path d="M9.35,136.658l1039,0" style="fill:none;stroke:#808080;stroke-width:1.04px;"/><circle cx="8.35" cy="136.658" r="7" style="fill:#ff9b57;"/><circle cx="1049.35" cy="136.658" r="7" style="fill:#ff9b57;"/><circle cx="373.35" cy="136.658" r="132" style="fill:none;stroke:#ff8200;stroke-width:4.17px;stroke-linecap:butt;stroke-linejoin:miter;stroke-miterlimit:2;stroke-dasharray:6.25,8.33,0,0;"/><circle cx="640.35" cy="136.658" r="132" style="fill:none;stroke:#ff8200;stroke-width:4.17px;stroke-linecap:butt;stroke-linejoin:miter;stroke-miterlimit:2;stroke-dasharray:6.25,8.33,0,0;"/><circle cx="239.35" cy="138.658" r="81" style="fill:#cdc1b5;"/><circle cx="507.35" cy="138.658" r="81" style="fill:#cdc1b5;"/><circle cx="776.35" cy="138.658" r="81" style="fill:#cdc1b5;"/><text x="-0.702px" y="107.615px" style="font-family:'BergenSans-SemiBold', 'Bergen Sans';font-weight:600;font-size:21.888px;">C<tspan x="13.131px 25.038px 36.945px 47.101px 57.958px 70.74px 79.145px " y="107.615px 107.615px 107.615px 107.615px 107.615px 107.615px 107.615px ">oncepto</tspan></text><text x="207.306px" y="146.275px" style="font-family:'BergenSans-SemiBold', 'Bergen Sans';font-weight:600;font-size:21.888px;">Di<tspan x="226.042px 235.673px 246.529px " y="146.275px 146.275px 146.275px ">señ</tspan>o</text><text x="463.137px" y="146.627px" style="font-family:'BergenSans-SemiBold', 'Bergen Sans';font-weight:600;font-size:21.888px;">Des<tspan x="497.282px 508.313px 516.893px 528.8px 534.228px 539.482px " y="146.627px 146.627px 146.627px 146.627px 146.627px 146.627px ">arollo</tspan></text><g transform="matrix(0.115905,1.47343e-34,-1.47343e-34,0.115905,720.418,-6.76562)"><text x="112.438px" y="1229px" style="font-family:'BergenSans-SemiBold', 'Bergen Sans';font-weight:600;font-size:188.843px;">Pru<tspan x="384.371px 478.037px " y="1229px 1229px ">eb</tspan>a y</text><text x="84.489px" y="1417.84px" style="font-family:'BergenSans-SemiBold', 'Bergen Sans';font-weight:600;font-size:188.843px;">F<tspan x="169.091px " y="1417.84px ">e</tspan>ed<tspan x="472.75px " y="1417.84px ">b</tspan>ack</text></g><text x="935.598px" y="110.066px" style="font-family:'BergenSans-Regular', 'Bergen Sans';font-size:21.888px;">La<tspan x="956.435px " y="110.066px ">n</tspan>za<tspan x="989.529px 1007.22px 1012.47px 1023.32px 1035.06px 1043.11px " y="110.066px 110.066px 110.066px 110.066px 110.066px 110.066px ">miento</tspan></text></g></svg>