<?xml version="1.0" encoding="UTF-8" standalone="no"?>
<!DOCTYPE svg PUBLIC "-//W3C//DTD SVG 1.1//EN" "http://www.w3.org/Graphics/SVG/1.1/DTD/svg11.dtd">
<svg width="100%" height="100%" viewBox="0 0 1000 331" version="1.1" xmlns="http://www.w3.org/2000/svg" xmlns:xlink="http://www.w3.org/1999/xlink" xml:space="preserve" xmlns:serif="http://www.serif.com/" style="fill-rule:evenodd;clip-rule:evenodd;stroke-linejoin:round;stroke-miterlimit:2;">
    <g id="Logo-isolado" serif:id="Logo isolado" transform="matrix(1,0,0,0.331,400,439.237)">
        <rect x="-400" y="-1327" width="1000" height="1000" style="fill:none;"/>
        <clipPath id="_clip1">
            <rect x="-400" y="-1327" width="1000" height="1000"/>
        </clipPath>
        <g clip-path="url(#_clip1)">
            <g id="_-" serif:id=" " transform="matrix(2.60857,0,0,3.49266,-1375.57,-2009.13)">
                <g transform="matrix(79.7727,0,0,180,369.995,440.011)">
                    <path d="M0.595,0L0.814,0L0.672,-0.317L0.672,-0.333C0.672,-0.333 0.799,-0.39 0.795,-0.556C0.791,-0.701 0.623,-0.777 0.586,-0.777L0.05,-0.777L0.05,0L0.25,0L0.25,-0.297L0.467,-0.297L0.595,0ZM0.25,-0.589L0.55,-0.592C0.548,-0.592 0.591,-0.59 0.592,-0.539C0.592,-0.482 0.545,-0.483 0.55,-0.483L0.25,-0.483L0.25,-0.589Z" style="fill:rgb(84,70,57);fill-rule:nonzero;"/>
                </g>
                <g transform="matrix(79.7727,0,0,180,445.984,440.011)">
                    <path d="M0.253,-0.189L0.253,-0.297L0.611,-0.297L0.611,-0.483L0.253,-0.483L0.253,-0.592L0.714,-0.589L0.714,-0.778L0.05,-0.777L0.05,0L0.711,0L0.711,-0.189L0.253,-0.189Z" style="fill:rgb(84,70,57);fill-rule:nonzero;"/>
                </g>
                <g transform="matrix(79.7727,0,0,180,514.722,440.011)">
                    <path d="M0.05,0L0.441,0C0.633,0 0.836,-0.155 0.836,-0.395C0.836,-0.636 0.605,-0.778 0.458,-0.778L0.05,-0.777L0.05,0ZM0.458,-0.189C0.391,-0.19 0.258,-0.189 0.258,-0.189L0.258,-0.589L0.458,-0.589C0.484,-0.589 0.63,-0.532 0.63,-0.389C0.63,-0.246 0.476,-0.189 0.458,-0.189Z" style="fill:rgb(84,70,57);fill-rule:nonzero;"/>
                </g>
                <g transform="matrix(79.7727,0,0,176.842,588.006,438.439)">
                    <path d="M0.484,-0.175C0.367,-0.175 0.256,-0.257 0.256,-0.391C0.256,-0.525 0.367,-0.597 0.473,-0.597C0.571,-0.597 0.589,-0.592 0.656,-0.53L0.8,-0.641C0.781,-0.665 0.688,-0.783 0.484,-0.783C0.248,-0.783 0.05,-0.619 0.05,-0.391C0.05,-0.165 0.242,0.009 0.478,0.009C0.682,0.009 0.758,-0.078 0.784,-0.108L0.65,-0.236C0.589,-0.179 0.487,-0.175 0.484,-0.175Z" style="fill:rgb(250,104,5);fill-rule:nonzero;"/>
                </g>
                <g>
                    <g transform="matrix(80.8096,0,0,175,655.85,438.163)">
                        <path d="M0.48,-0.79C0.243,-0.79 0.05,-0.616 0.05,-0.39C0.05,-0.162 0.243,0.01 0.48,0.01C0.716,0.01 0.905,-0.162 0.905,-0.39C0.905,-0.616 0.716,-0.79 0.48,-0.79ZM0.48,-0.178C0.351,-0.178 0.251,-0.267 0.251,-0.39C0.251,-0.512 0.351,-0.606 0.48,-0.606C0.608,-0.606 0.698,-0.512 0.703,-0.39C0.708,-0.278 0.608,-0.178 0.48,-0.178Z" style="fill:rgb(250,104,5);fill-rule:nonzero;"/>
                    </g>
                    <g transform="matrix(0.443182,0,0,0.94,316.375,-131)">
                        <circle cx="970" cy="375" r="25" style="fill:rgb(250,104,5);"/>
                    </g>
                    <g transform="matrix(0.447614,0,0,0.94,293.13,-76.5)">
                        <circle cx="970" cy="375" r="25" style="fill:rgb(250,104,5);"/>
                    </g>
                    <g transform="matrix(0.416591,0,0,0.8648,259.515,135.7)">
                        <circle cx="970" cy="375" r="25" style="fill:rgb(250,104,5);"/>
                    </g>
                    <g transform="matrix(0.443182,0,0,1,285.352,-100)">
                        <path d="M999,399C981.373,404.011 978.667,416.667 980.5,423L956,407C957.167,407 974.445,405.142 972.5,378" style="fill:rgb(250,104,5);"/>
                    </g>
                </g>
            </g>
        </g>
    </g>
    <g transform="matrix(1.22647,0,0,0.543547,756.231,-393.703)">
        <g id="_-1" serif:id=" ">
        </g>
    </g>
</svg>
